<?xml version="1.0"?>
<svg width="512" height="512" xmlns="http://www.w3.org/2000/svg" xmlns:svg="http://www.w3.org/2000/svg">
 <title>shopping cart</title>
 <g>
  <title>Layer 1</title>
  <path fill="black" id="svg_1" d="m440.012861,60.854352c-0.5602,0.008 -1.1368,0.0575 -1.6876,0.15625l-0.031,0l-55.625,9.5c-3.5377,0.60697 -6.5035,3.03284 -7.8125,6.375a2.52904,2.52904 0 0 0 0,0.0312l-25.8125,66.1875l-251.9062,6.28125c-2.897,0.0724 -5.6164,1.38086 -7.5,3.5625s-2.7899,5.08291 -2.4376,7.96875l13.9063,115.03125c0.5737,4.82612 4.561,8.6532 9.4063,9.03125l179.5937,14.28125l35.5937,28a2.52904,2.52904 0 0 0 0.125,0.0937c0.038,0.0264 0.086,0.0365 0.125,0.0625s0.081,0.0652 0.125,0.0937c6.4957,4.84854 8.1056,11.45407 7.1876,15.125c-0.5231,2.09179 -1.3217,3.62865 -3.2188,4.8125s-5.1742,2.04059 -10.7812,1.71875a2.52904,2.52904 0 0 0 -0.063,0c-0.1801,-0.006 -0.3823,-0.004 -0.5624,0l-0.094,0l-214.1875,0.625l-0.031,0c-5.6288,-0.0359 -10.3661,4.68517 -10.3437,10.3125s4.7779,10.33092 10.4063,10.25l0.031,0l15.6562,-0.0312c-5.8172,3.70826 -9.7187,10.19515 -9.7187,17.5625c0,11.45874 9.3852,20.84375 20.8437,20.84375s20.8438,-9.38501 20.8438,-20.84375c0,-7.4072 -3.9118,-13.95842 -9.7812,-17.65625l176.375,-0.5c-6.3545,3.58252 -10.6876,10.38369 -10.6876,18.15625c0,11.45874 9.385,20.84375 20.8438,20.84375s20.8438,-9.38501 20.8438,-20.84375c0,-9.95151 -7.0696,-18.34068 -16.4376,-20.375c8.8575,-3.13336 15.6618,-9.59464 19.875,-19.46875a2.52904,2.52904 0 0 0 0.1563,-0.375c3.23,-12.91629 -2.4989,-26.95912 -14.3125,-36.09375a2.52904,2.52904 0 0 0 -0.094,-0.0937c-0.029,-0.0222 -0.034,-0.0716 -0.062,-0.0937a2.52904,2.52904 0 0 0 -0.3438,-0.34375l-25.2188,-19.78125l78.6563,-201.46875l49.9063,-8.5l0.031,0c5.2427,-0.84286 9.0768,-5.72917 8.625,-11.03125c-0.4525,-5.31218 -5.0811,-9.47862 -10.4062,-9.40625l0.0003,0zm-98.5626,98.125l-14.5,37.1875l-18.9062,0l0,-36.34375l33.4062,-0.84375zm-40.625,1.03125l0,36.15625l-34.9062,0l0,-35.28125l34.9062,-0.875zm-42.125,1.03125l0,35.125l-34.9062,0l0,-34.25l34.9062,-0.875zm-42.125,1.0625l0,34.0625l-34.9062,0l0,-33.1875l34.9062,-0.875zm-42.125,1.0625l0,33l-34.9062,0l0,-32.125l34.9062,-0.875zm-42.125,1.03125l0,31.96875l-25.5937,0l-3.7813,-31.21875l29.375,-0.75zm-24.7187,39.15625l24.7187,0l0,32.65625l-20.7812,0l-3.9375,-32.65625zm31.9375,0l34.9062,0l0,32.65625l-34.9062,0l0,-32.65625zm42.125,0l34.9062,0l0,32.65625l-34.9062,0l0,-32.65625zm42.125,0l34.9062,0l0,32.65625l-34.9062,0l0,-32.65625zm42.125,0l34.9062,0l0,32.65625l-34.9062,0l0,-32.65625zm42.125,0l16.125,0l-12.75,32.65625l-3.375,0l0,-32.65625zm-195.625,39.84375l19.9062,0l0,23.4375l-17.25,-1.375l-2.6562,-22.0625zm27.125,0l34.9062,0l0,26.78125l-34.9062,-2.78125l0,-24zm42.125,0l34.9062,0l0,30.125l-34.9062,-2.75l0,-27.375zm42.125,0l34.9062,0l0,33.5l-34.9062,-2.78125l0,-30.71875zm42.125,0l34.9062,0l0,19.875l-6.625,16.96875c-0.86,-0.41667 -1.7975,-0.6724 -2.75,-0.75l-25.5312,-2.03125l0,-34.0625zm42.125,0l0.5312,0l-0.5312,1.46875l0,-1.46875zm-176.8438,132.4375c6.8111,0 12.25,5.43904 12.25,12.25s-5.4389,12.21875 -12.25,12.21875s-12.25,-5.40779 -12.25,-12.21875s5.4393,-12.25 12.25,-12.25zm197.5938,0c6.8109,0 12.25,5.43904 12.25,12.25s-5.4391,12.21875 -12.25,12.21875s-12.25,-5.40779 -12.25,-12.21875s5.439,-12.25 12.25,-12.25zm-197.5938,5.8125c-3.7001,0 -6.6562,2.9561 -6.6562,6.65625s2.9561,6.625 6.6562,6.625s6.6563,-2.92485 6.6563,-6.625s-2.956,-6.65625 -6.6563,-6.65625zm197.5938,0c-3.7002,0 -6.6562,2.9561 -6.6562,6.65625s2.956,6.625 6.6562,6.625s6.6562,-2.92485 6.6562,-6.625s-2.9561,-6.65625 -6.6562,-6.65625z"/>
 </g>
</svg>